<svg width="18" height="20" viewBox="0 0 18 20" fill="none" xmlns="http://www.w3.org/2000/svg">
<path d="M0.0571289 5.0365C0.0571289 4.50985 0.266337 4.00478 0.638731 3.63238C1.01112 3.25999 1.5162 3.05078 2.04284 3.05078H8.99284C9.51949 3.05078 10.0246 3.25999 10.397 3.63238C10.7693 4.00478 10.9786 4.50985 10.9786 5.0365V9.00792C10.9786 9.53457 10.7693 10.0396 10.397 10.412C10.0246 10.7844 9.51949 10.9936 8.99284 10.9936H7.00713L4.02856 13.9722V10.9936H2.04284C1.5162 10.9936 1.01112 10.7844 0.638731 10.412C0.266337 10.0396 0.0571289 9.53457 0.0571289 9.00792V5.0365Z" fill="#1723C7"/>
<path d="M12.9641 7.02148V9.0072C12.9641 10.0605 12.5457 11.0706 11.8009 11.8154C11.0561 12.5602 10.046 12.9786 8.9927 12.9786H7.82907L6.07568 14.733C6.35368 14.8809 6.6704 14.9643 7.00698 14.9643H8.9927L11.9713 17.9429V14.9643H13.957C14.4836 14.9643 14.9887 14.7551 15.3611 14.3827C15.7335 14.0103 15.9427 13.5053 15.9427 12.9786V9.0072C15.9427 8.48055 15.7335 7.97548 15.3611 7.60309C14.9887 7.23069 14.4836 7.02148 13.957 7.02148H12.9641Z" fill="#1723C7"/>
</svg>
