<svg width="20" height="20" viewBox="0 0 20 20" fill="none" xmlns="http://www.w3.org/2000/svg">
<path d="M6.95013 3.05078C6.6868 3.05078 6.43427 3.15539 6.24807 3.34158C6.06187 3.52778 5.95727 3.78032 5.95727 4.04364C5.95727 4.30696 6.06187 4.5595 6.24807 4.74569C6.43427 4.93189 6.6868 5.0365 6.95013 5.0365H12.9073C13.1706 5.0365 13.4231 4.93189 13.6093 4.74569C13.7955 4.5595 13.9001 4.30696 13.9001 4.04364C13.9001 3.78032 13.7955 3.52778 13.6093 3.34158C13.4231 3.15539 13.1706 3.05078 12.9073 3.05078H6.95013ZM3.97155 7.02221C3.97155 6.75889 4.07616 6.50635 4.26236 6.32015C4.44855 6.13396 4.70109 6.02935 4.96441 6.02935H14.893C15.1563 6.02935 15.4088 6.13396 15.595 6.32015C15.7812 6.50635 15.8858 6.75889 15.8858 7.02221C15.8858 7.28553 15.7812 7.53807 15.595 7.72427C15.4088 7.91046 15.1563 8.01507 14.893 8.01507H4.96441C4.70109 8.01507 4.44855 7.91046 4.26236 7.72427C4.07616 7.53807 3.97155 7.28553 3.97155 7.02221ZM1.98584 10.9936C1.98584 10.467 2.19505 9.96192 2.56744 9.58953C2.93984 9.21713 3.44491 9.00792 3.97155 9.00792H15.8858C16.4125 9.00792 16.9176 9.21713 17.29 9.58953C17.6623 9.96192 17.8716 10.467 17.8716 10.9936V14.9651C17.8716 15.4917 17.6623 15.9968 17.29 16.3692C16.9176 16.7416 16.4125 16.9508 15.8858 16.9508H3.97155C3.44491 16.9508 2.93984 16.7416 2.56744 16.3692C2.19505 15.9968 1.98584 15.4917 1.98584 14.9651V10.9936Z" fill="currentColor"/>
</svg>
