<svg width="25" height="25" viewBox="0 0 25 25" fill="none" xmlns="http://www.w3.org/2000/svg">
<g clip-path="url(#clip0_156_506)">
<path d="M18.5263 18.5283C16.761 19.8739 14.6115 20.6194 12.3922 20.6557C5.16342 20.6557 1.03271 12.3942 1.03271 12.3942C2.31725 10.0004 4.09887 7.90893 6.25806 6.26015M10.2235 4.38068C10.9344 4.2143 11.6621 4.13112 12.3922 4.13284C19.6209 4.13284 23.7516 12.3942 23.7516 12.3942C23.1247 13.567 22.3772 14.671 21.521 15.6885M14.5814 14.5835C14.2978 14.8879 13.9558 15.132 13.5758 15.3014C13.1957 15.4707 12.7855 15.5617 12.3695 15.5691C11.9536 15.5764 11.5404 15.4999 11.1546 15.3441C10.7688 15.1883 10.4184 14.9563 10.1242 14.6622C9.83006 14.368 9.59814 14.0176 9.44232 13.6318C9.28651 13.246 9.20999 12.8328 9.21733 12.4169C9.22467 12.0009 9.31572 11.5907 9.48504 11.2106C9.65437 10.8306 9.8985 10.4886 10.2029 10.205" stroke="currentColor" stroke-width="1.85882" stroke-linecap="round" stroke-linejoin="round"/>
<path d="M1.03271 1.0332L23.7516 23.7521" stroke="currentColor" stroke-width="1.85882" stroke-linecap="round" stroke-linejoin="round"/>
</g>
<defs>
<clipPath id="clip0_156_506">
<rect width="24.7842" height="24.7842" fill="white"/>
</clipPath>
</defs>
</svg>
